GIL03_xslow1_ik
nRows=3
nColumns=375

# SIMM Motion File Header:
name GIL03_xslow1_ik
datacolumns 375
datarows 3
otherdata 1
range 0.60833000 0.62500000
endheader
time	pelvis_tx	pelvis_ty	pelvis_tz	pelvis_tilt	pelvis_list	pelvis_rotation	hip_flexion_r	hip_adduction_r	hip_rotation_r	knee_angle_r	ankle_angle_r	hip_flexion_l	hip_adduction_l	hip_rotation_l	knee_angle_l	ankle_angle_l	lumbar_extension	lumbar_bending	lumbar_rotation	subtalar_angle_r	mtp_angle_r	subtalar_angle_l	mtp_angle_l	asis_r_px	asis_r_py	asis_r_pz	asis_l_px	asis_l_py	asis_l_pz	midasis_px	midasis_py	midasis_pz	psis_r_px	psis_r_py	psis_r_pz	psis_l_px	psis_l_py	psis_l_pz	hip_r_px	hip_r_py	hip_r_pz	hip_l_px	hip_l_py	hip_l_pz	midhip_px	midhip_py	midhip_pz	epicondLat_r_px	epicondLat_r_py	epicondLat_r_pz	epicondMed_r_px	epicondMed_r_py	epicondMed_r_pz	thighwand_r_px	thighwand_r_py	thighwand_r_pz	upperleg1_r_px	upperleg1_r_py	upperleg1_r_pz	upperleg2_r_px	upperleg2_r_py	upperleg2_r_pz	malleolusLat_r_px	malleolusLat_r_py	malleolusLat_r_pz	malleolusMedv_r_px	malleolusMedv_r_py	malleolusMedv_r_pz	shankwand_r_px	shankwand_r_py	shankwand_r_pz	lowerleg1_r_px	lowerleg1_r_py	lowerleg1_r_pz	knee_r_px	knee_r_py	knee_r_pz	ankle_r_px	ankle_r_py	ankle_r_pz	toe_r_px	toe_r_py	toe_r_pz	epicondLat_l_px	epicondLat_l_py	epicondLat_l_pz	epicondMed_l_px	epicondMed_l_py	epicondMed_l_pz	thighwand_l_px	thighwand_l_py	thighwand_l_pz	upperleg1_l_px	upperleg1_l_py	upperleg1_l_pz	upperleg2_l_px	upperleg2_l_py	upperleg2_l_pz	malleolusLat_l_px	malleolusLat_l_py	malleolusLat_l_pz	malleolusMedv_l_px	malleolusMedv_l_py	malleolusMedv_l_pz	shankwand_l_px	shankwand_l_py	shankwand_l_pz	lowerleg1_l_px	lowerleg1_l_py	lowerleg1_l_pz	knee_l_px	knee_l_py	knee_l_pz	ankle_l_px	ankle_l_py	ankle_l_pz	toe_l_px	toe_l_py	toe_l_pz	subclavicle_r_px	subclavicle_r_py	subclavicle_r_pz	subclavicle_l_px	subclavicle_l_py	subclavicle_l_pz	neck_px	neck_py	neck_pz	sternalnotch_px	sternalnotch_py	sternalnotch_pz	xyphoidprocess_px	xyphoidprocess_py	xyphoidprocess_pz	midhip_tx	midhip_ty	midhip_tz	hip_r_tx	hip_r_ty	hip_r_tz	hip_l_tx	hip_l_ty	hip_l_tz	knee_r_tx	knee_r_ty	knee_r_tz	knee_l_tx	knee_l_ty	knee_l_tz	ankle_r_tx	ankle_r_ty	ankle_r_tz	ankle_l_tx	ankle_l_ty	ankle_l_tz	midasis_tx	midasis_ty	midasis_tz	asis_r_tx	asis_r_ty	asis_r_tz	asis_l_tx	asis_l_ty	asis_l_tz	psis_r_tx	psis_r_ty	psis_r_tz	psis_l_tx	psis_l_ty	psis_l_tz	epicondLat_r_tx	epicondLat_r_ty	epicondLat_r_tz	epicondLat_l_tx	epicondLat_l_ty	epicondLat_l_tz	epicondMed_r_tx	epicondMed_r_ty	epicondMed_r_tz	epicondMed_l_tx	epicondMed_l_ty	epicondMed_l_tz	malleolusLat_r_tx	malleolusLat_r_ty	malleolusLat_r_tz	malleolusLat_l_tx	malleolusLat_l_ty	malleolusLat_l_tz	malleolusMedv_r_tx	malleolusMedv_r_ty	malleolusMedv_r_tz	malleolusMedv_l_tx	malleolusMedv_l_ty	malleolusMedv_l_tz	neck_tx	neck_ty	neck_tz	subclavicle_r_tx	subclavicle_r_ty	subclavicle_r_tz	subclavicle_l_tx	subclavicle_l_ty	subclavicle_l_tz	sternalnotch_tx	sternalnotch_ty	sternalnotch_tz	xyphoidprocess_tx	xyphoidprocess_ty	xyphoidprocess_tz	thighwand_r_tx	thighwand_r_ty	thighwand_r_tz	thighwand_l_tx	thighwand_l_ty	thighwand_l_tz	upperleg1_r_tx	upperleg1_r_ty	upperleg1_r_tz	upperleg1_l_tx	upperleg1_l_ty	upperleg1_l_tz	upperleg2_r_tx	upperleg2_r_ty	upperleg2_r_tz	upperleg2_l_tx	upperleg2_l_ty	upperleg2_l_tz	shankwand_r_tx	shankwand_r_ty	shankwand_r_tz	shankwand_l_tx	shankwand_l_ty	shankwand_l_tz	lowerleg1_r_tx	lowerleg1_r_ty	lowerleg1_r_tz	lowerleg1_l_tx	lowerleg1_l_ty	lowerleg1_l_tz	toe_r_tx	toe_r_ty	toe_r_tz	toe_l_tx	toe_l_ty	toe_l_tz	ground_force_vx	ground_force_vy	ground_force_vz	ground_force_px	ground_force_py	ground_force_pz	ground_force_vx	ground_force_vy	ground_force_vz	ground_force_px	ground_force_py	ground_force_pz	ground_torque_x	ground_torque_y	ground_torque_z	ground_torque_x	ground_torque_y	ground_torque_z	ground_marker_px	ground_marker_py	ground_marker_pz	ground_marker_px	ground_marker_py	ground_marker_pz	ground_marker_px	ground_marker_py	ground_marker_pz	ground_marker_px	ground_marker_py	ground_marker_pz	ground_marker_px	ground_marker_py	ground_marker_pz	ground_marker_px	ground_marker_py	ground_marker_pz	ground_marker_px	ground_marker_py	ground_marker_pz	ground_marker_px	ground_marker_py	ground_marker_pz	ground_marker_px	ground_marker_py	ground_marker_pz	ground_marker_px	ground_marker_py	ground_marker_pz	ground_marker_px	ground_marker_py	ground_marker_pz	ground_marker_px	ground_marker_py	ground_marker_pz	ground_marker_px	ground_marker_py	ground_marker_pz	ground_marker_px	ground_marker_py	ground_marker_pz	ground_marker_px	ground_marker_py	ground_marker_pz	ground_marker_px	ground_marker_py	ground_marker_pz	ground_marker_px	ground_marker_py	ground_marker_pz	ground_marker_px	ground_marker_py	ground_marker_pz	ground_marker_px	ground_marker_py	ground_marker_pz	ground_marker_px	ground_marker_py	ground_marker_pz	ground_marker_px	ground_marker_py	ground_marker_pz	ground_marker_px	ground_marker_py	ground_marker_pz	ground_marker_px	ground_marker_py	ground_marker_pz	ground_marker_px	ground_marker_py	ground_marker_pz	ground_marker_px	ground_marker_py	ground_marker_pz	ground_marker_px	ground_marker_py	ground_marker_pz	ground_marker_px	ground_marker_py	ground_marker_pz	ground_marker_px	ground_marker_py	ground_marker_pz	ground_marker_px	ground_marker_py	ground_marker_pz	ground_marker_px	ground_marker_py	ground_marker_pz	ground_marker_px	ground_marker_py	ground_marker_pz	ground_marker_px	ground_marker_py	ground_marker_pz	ground_marker_px	ground_marker_py	ground_marker_pz	ground_marker_px	ground_marker_py	ground_marker_pz	ground_marker_px	ground_marker_py	ground_marker_pz	ground_marker_px	ground_marker_py	ground_marker_pz	ground_marker_px	ground_marker_py	ground_marker_pz
      0.60833000	      1.63535718	      0.89053617	     -0.28110408	      3.53040262	     -1.21961953	     -0.36028681	     19.40620709	     -3.30712587	     -3.41732364	    -30.33988170	      7.74135675	     -5.78931775	      2.19809234	      3.10860821	    -13.04302083	     13.60754630	    -13.13811668	      2.40302935	      0.43511353	      0.00000000	      0.00000000	      0.00000000	      0.00000000	      1.68329646	      0.89887943	     -0.18809168	      1.66732623	      0.88751769	     -0.38884586	      1.64636966	      0.89121707	     -0.28103472	      1.52392548	      0.93761436	     -0.25430310	      1.51923909	      0.93522168	     -0.30895676	      1.58245205	      0.83648587	     -0.21455345	      1.58345061	      0.83374078	     -0.34613765	      1.58295133	      0.83511332	     -0.28034555	      1.75456623	      0.49169834	     -0.11973531	      1.74112792	      0.46985102	     -0.22622702	      1.82026380	      0.69029118	     -0.19627562	      1.73160536	      0.71559319	     -0.15455166	      1.75276478	      0.63272980	     -0.14512288	      1.66079174	      0.08265595	     -0.13035234	      1.70138834	      0.08961928	     -0.19120219	      1.66854208	      0.20672216	     -0.06196249	      1.67839977	      0.21105309	     -0.10291500	      1.72965167	      0.49073388	     -0.18442480	      1.67854253	      0.09524972	     -0.16868713	      1.78312651	      0.06165768	     -0.10381785	      1.58847281	      0.44431186	     -0.38290352	      1.56624805	      0.43892276	     -0.27601173	      1.71825281	      0.60444030	     -0.31517716	      1.65328741	      0.64799695	     -0.37927511	      1.64723551	      0.56079093	     -0.36838695	      1.45270459	      0.05945264	     -0.34872484	      1.47922135	      0.06722684	     -0.28664282	      1.44159434	      0.18030917	     -0.41347042	      1.45974206	      0.18340377	     -0.37431606	      1.56622234	      0.45984595	     -0.32421220	      1.46096053	      0.07528169	     -0.30695463	      1.57707860	      0.02663779	     -0.35389820	      1.63993112	      1.27712957	     -0.21906958	      1.64324569	      1.27652894	     -0.32823306	      1.53808099	      1.32779625	     -0.27272088	      1.62618872	      1.28538462	     -0.27938547	      1.70803416	      1.13062328	     -0.27480209	      1.58536600	      0.84009700	     -0.28195100	      1.59084900	      0.82544500	     -0.21879400	      1.58143200	      0.82092900	     -0.33580100	      1.73710300	      0.47404100	     -0.18591700	      1.56648900	      0.46403000	     -0.31412200	      1.68387200	      0.08480200	     -0.17334900	      1.45830000	      0.06910600	     -0.30463500	      1.64365700	      0.90491200	     -0.27909800	      1.64327000	      0.90739500	     -0.17879000	      1.64404300	      0.90243000	     -0.37940700	      1.48573900	      0.92838500	     -0.25096900	      1.48536100	      0.92970300	     -0.30540300	      1.74135500	      0.48090100	     -0.13151300	      1.58323200	      0.46018700	     -0.36584400	      1.73339700	      0.46460700	     -0.24021600	      1.54417200	      0.45364900	     -0.27615200	      1.67089700	      0.08774300	     -0.13722000	      1.46900900	      0.06528900	     -0.34141900	      1.70549700	      0.09812200	     -0.20125700	      1.47406600	      0.07925300	     -0.27655500	      1.54362900	      1.34315800	     -0.27146900	      1.64040500	      1.26832800	     -0.22116400	      1.64078400	      1.26600100	     -0.32896900	      1.62618100	      1.27850000	     -0.28041200	      1.67466100	      1.10997900	     -0.27568700	      1.80017200	      0.68637500	     -0.19586500	      1.69953800	      0.62066000	     -0.28940800	      1.71246300	      0.70390800	     -0.15205500	      1.64478500	      0.66418500	     -0.36222200	      1.73781500	      0.62233400	     -0.14891200	      1.63762900	      0.57666600	     -0.35301300	      1.67646200	      0.21312600	     -0.07264200	      1.47741400	      0.18074900	     -0.41687500	      1.68486300	      0.21773400	     -0.11340900	      1.48107200	      0.18786700	     -0.37417200	      1.79029600	      0.06457700	     -0.13015500	      1.58486300	      0.03750100	     -0.29281000	      0.00000000	      0.00000000	      0.00000000	      1.85295239	      0.00000000	     -0.19453464	      3.85729180	    389.52359415	      5.82071012	      1.56621912	      0.00000000	     -0.29740875	      0.00000000	      0.00000000	      0.00000000	      0.00000000	     -0.83729559	      0.00000000	      1.58536553	      0.84009731	     -0.28195077	      1.59084868	      0.82544494	     -0.21879397	      1.58143163	      0.82092851	     -0.33580059	      1.73710263	      0.47404101	     -0.18591717	      1.56648886	      0.46402970	     -0.31412190	      1.68387198	      0.08480182	     -0.17334858	      1.45829976	      0.06910644	     -0.30463544	      1.64365661	      0.90491229	     -0.27909839	      1.64327013	      0.90739489	     -0.17878979	      1.64404309	      0.90242970	     -0.37940696	      1.48573935	      0.92838526	     -0.25096884	      1.48536146	      0.92970252	     -0.30540290	      1.74135470	      0.48090070	     -0.13151252	      1.58323205	      0.46018702	     -0.36584371	      1.73339677	      0.46460745	     -0.24021563	      1.54417217	      0.45364910	     -0.27615240	      1.67089748	      0.08774275	     -0.13722014	      1.46900868	      0.06528920	     -0.34141862	      1.70549679	      0.09812224	     -0.20125684	      1.47406602	      0.07925251	     -0.27655488	      1.54362905	      1.34315801	     -0.27146909	      1.64040482	      1.26832759	     -0.22116390	      1.64078391	      1.26600111	     -0.32896933	      1.62618113	      1.27849960	     -0.28041250	      1.67466068	      1.10997880	     -0.27568659	      1.80017185	      0.68637460	     -0.19586454	      1.69953787	      0.62066025	     -0.28940761	      1.71246278	      0.70390773	     -0.15205450	      1.64478528	      0.66418457	     -0.36222199	      1.73781490	      0.62233412	     -0.14891249	      1.63762927	      0.57666588	     -0.35301346	      1.67646182	      0.21312627	     -0.07264165	      1.47741413	      0.18074854	     -0.41687492	      1.68486345	      0.21773358	     -0.11340936	      1.48107243	      0.18786742	     -0.37417153	      1.79029584	      0.06457732	     -0.13015474	      1.58486331	      0.03750087	     -0.29280970
      0.61667000	      1.63993768	      0.89013835	     -0.28109387	      3.52846242	     -1.23726483	     -0.09395811	     19.42362921	     -3.18512925	     -3.21210370	    -28.77124199	      7.48750537	     -6.15397315	      2.12501518	      3.21494165	    -12.94248970	     13.77616563	    -13.14102984	      2.46871625	      0.14125588	      0.00000000	      0.00000000	      0.00000000	      0.00000000	      1.68830723	      0.89853032	     -0.18830888	      1.67140829	      0.88705166	     -0.38898037	      1.65095046	      0.89081781	     -0.28107578	      1.52863720	      0.93724746	     -0.25380638	      1.52369808	      0.93482300	     -0.30843638	      1.58733341	      0.83613467	     -0.21426748	      1.58772374	      0.83331139	     -0.34585324	      1.58752858	      0.83472303	     -0.28006036	      1.76022995	      0.49132960	     -0.12094832	      1.74585846	      0.46948101	     -0.22731786	      1.82527886	      0.68991274	     -0.19806566	      1.73699159	      0.71522621	     -0.15556879	      1.75822300	      0.63236059	     -0.14632308	      1.67724207	      0.08082853	     -0.12982327	      1.71701825	      0.08874617	     -0.19109679	      1.68231191	      0.20522100	     -0.06177569	      1.69163442	      0.20972066	     -0.10283519	      1.73444994	      0.49049472	     -0.18544700	      1.69425651	      0.09380824	     -0.16836268	      1.80026235	      0.06270574	     -0.10456885	      1.59016627	      0.44388209	     -0.38287600	      1.56818318	      0.43856612	     -0.27593059	      1.72113949	      0.60313582	     -0.31538457	      1.65628832	      0.64714722	     -0.37928727	      1.64970820	      0.55997459	     -0.36843819	      1.45271058	      0.05967962	     -0.34853729	      1.47942970	      0.06729755	     -0.28652269	      1.44198645	      0.18062113	     -0.41318923	      1.46025339	      0.18361058	     -0.37408218	      1.56814724	      0.45952972	     -0.32411942	      1.46115191	      0.07544779	     -0.30678110	      1.57702979	      0.02663727	     -0.35414335	      1.64456647	      1.27673667	     -0.21875901	      1.64794949	      1.27610044	     -0.32792018	      1.54276478	      1.32741584	     -0.27249039	      1.63086438	      1.28497657	     -0.27908613	      1.71266205	      1.13019297	     -0.27440222	      1.58997300	      0.84009700	     -0.28164000	      1.59559000	      0.82515700	     -0.21831500	      1.58563000	      0.82064500	     -0.33527700	      1.74215100	      0.47363700	     -0.18683700	      1.56848000	      0.46380700	     -0.31397800	      1.69967200	      0.08285200	     -0.17333100	      1.45847300	      0.06928800	     -0.30452700	      1.64812500	      0.90462100	     -0.27886100	      1.64820300	      0.90710200	     -0.17851500	      1.64804600	      0.90214100	     -0.37920800	      1.49033200	      0.92804800	     -0.24975600	      1.48962400	      0.92951600	     -0.30403700	      1.74687400	      0.48047500	     -0.13246800	      1.58506600	      0.45992000	     -0.36574700	      1.73799700	      0.46404800	     -0.24053200	      1.54625300	      0.45359600	     -0.27578700	      1.68690100	      0.08549200	     -0.13710700	      1.46907000	      0.06545200	     -0.34134100	      1.72105000	      0.09687400	     -0.20155100	      1.47462600	      0.07932400	     -0.27648500	      1.54838900	      1.34279000	     -0.27123800	      1.64508200	      1.26791500	     -0.22086200	      1.64539600	      1.26553200	     -0.32865300	      1.63081100	      1.27806800	     -0.28010500	      1.67914200	      1.10950200	     -0.27531500	      1.80482200	      0.68581000	     -0.19725400	      1.70243500	      0.61965200	     -0.28947000	      1.71754900	      0.70347600	     -0.15265500	      1.64761400	      0.66351700	     -0.36227800	      1.74305100	      0.62198700	     -0.14959800	      1.64009600	      0.57619100	     -0.35298600	      1.68952000	      0.21107300	     -0.07271600	      1.47783300	      0.18101400	     -0.41676300	      1.69751900	      0.21575900	     -0.11356000	      1.48151600	      0.18800900	     -0.37408900	      1.80709000	      0.06506500	     -0.13153100	      1.58486700	      0.03750900	     -0.29284400	      0.00000000	      0.00000000	      0.00000000	      1.85647095	      0.00000000	     -0.19479170	      4.44007078	    390.07612379	      6.04155426	      1.56818103	      0.00000000	     -0.29717392	      0.00000000	      0.00000000	      0.00000000	      0.00000000	     -0.88609705	      0.00000000	      1.58997285	      0.84009731	     -0.28164026	      1.59558976	      0.82515657	     -0.21831520	      1.58562994	      0.82064462	     -0.33527705	      1.74215055	      0.47363731	     -0.18683685	      1.56848025	      0.46380731	     -0.31397778	      1.69967234	      0.08285233	     -0.17333116	      1.45847285	      0.06928819	     -0.30452737	      1.64812469	      0.90462112	     -0.27886140	      1.64820349	      0.90710157	     -0.17851527	      1.64804578	      0.90214062	     -0.37920752	      1.49033201	      0.92804790	     -0.24975553	      1.48962379	      0.92951614	     -0.30403748	      1.74687409	      0.48047540	     -0.13246842	      1.58506560	      0.45992017	     -0.36574715	      1.73799670	      0.46404812	     -0.24053214	      1.54625273	      0.45359573	     -0.27578661	      1.68690109	      0.08549246	     -0.13710721	      1.46906984	      0.06545153	     -0.34134087	      1.72104967	      0.09687421	     -0.20155059	      1.47462618	      0.07932377	     -0.27648517	      1.54838884	      1.34279048	     -0.27123842	      1.64508188	      1.26791465	     -0.22086158	      1.64539576	      1.26553178	     -0.32865316	      1.63081098	      1.27806830	     -0.28010461	      1.67914164	      1.10950208	     -0.27531505	      1.80482244	      0.68581033	     -0.19725426	      1.70243454	      0.61965156	     -0.28946960	      1.71754861	      0.70347583	     -0.15265542	      1.64761424	      0.66351670	     -0.36227828	      1.74305058	      0.62198722	     -0.14959833	      1.64009643	      0.57619083	     -0.35298577	      1.68952036	      0.21107267	     -0.07271603	      1.47783279	      0.18101363	     -0.41676295	      1.69751930	      0.21575934	     -0.11356024	      1.48151612	      0.18800853	     -0.37408894	      1.80709040	      0.06506453	     -0.13153104	      1.58486736	      0.03750888	     -0.29284367
      0.62500000	      1.64451377	      0.88969725	     -0.28102159	      3.52948444	     -1.24641990	      0.17707943	     19.41284606	     -3.07443711	     -3.04651828	    -27.19741615	      7.21439821	     -6.50719070	      2.05547888	      3.30099862	    -12.86557053	     13.94770103	    -13.15574603	      2.52149646	     -0.15615464	      0.00000000	      0.00000000	      0.00000000	      0.00000000	      1.69332055	      0.89812685	     -0.18846927	      1.67547556	      0.88655926	     -0.38905373	      1.65552656	      0.89037576	     -0.28105569	      1.53334700	      0.93682818	     -0.25323136	      1.52815039	      0.93437953	     -0.30783639	      1.59222036	      0.83572818	     -0.21392381	      1.59199060	      0.83284560	     -0.34550866	      1.59210548	      0.83428689	     -0.27971623	      1.76569415	      0.49081695	     -0.12207991	      1.75044916	      0.46899747	     -0.22833375	      1.83021556	      0.68938317	     -0.19968241	      1.74228874	      0.71473233	     -0.15646557	      1.76355262	      0.63185415	     -0.14740912	      1.69343128	      0.07917637	     -0.12955249	      1.73239806	      0.08804222	     -0.19121499	      1.69580231	      0.20378952	     -0.06176161	      1.70461113	      0.20845959	     -0.10291539	      1.73908424	      0.49012397	     -0.18639432	      1.70972498	      0.09253472	     -0.16827354	      1.81703052	      0.06385631	     -0.10552541	      1.59192254	      0.44343470	     -0.38280446	      1.57022996	      0.43817921	     -0.27579676	      1.72407732	      0.60183155	     -0.31560046	      1.65930594	      0.64628625	     -0.37927683	      1.65222175	      0.55914820	     -0.36846741	      1.45272445	      0.05991015	     -0.34827558	      1.47967210	      0.06736046	     -0.28633956	      1.44238321	      0.18094232	     -0.41282016	      1.46078551	      0.18381926	     -0.37376817	      1.57016290	      0.45918388	     -0.32397220	      1.46137111	      0.07561137	     -0.30653618	      1.57698011	      0.02662362	     -0.35437019	      1.64925357	      1.27628827	     -0.21840577	      1.65269802	      1.27560588	     -0.32756474	      1.54750526	      1.32699159	     -0.27221543	      1.63558933	      1.28450971	     -0.27874400	      1.71731416	      1.12969100	     -0.27395058	      1.59453000	      0.83995700	     -0.28124400	      1.60036100	      0.82483000	     -0.21782500	      1.58985200	      0.82034500	     -0.33474000	      1.74705100	      0.47314400	     -0.18777900	      1.57057500	      0.46355800	     -0.31382100	      1.71523600	      0.08110100	     -0.17343200	      1.45868200	      0.06948500	     -0.30442500	      1.65261500	      0.90430600	     -0.27860000	      1.65316600	      0.90676500	     -0.17821900	      1.65206400	      0.90184700	     -0.37898100	      1.49495000	      0.92766800	     -0.24850700	      1.49390800	      0.92931200	     -0.30261500	      1.75221300	      0.47993900	     -0.13344500	      1.58698100	      0.45963400	     -0.36564500	      1.74207500	      0.46332700	     -0.24092700	      1.54840100	      0.45362500	     -0.27539600	      1.70265100	      0.08345100	     -0.13712300	      1.46916200	      0.06563000	     -0.34127000	      1.73628400	      0.09568800	     -0.20184000	      1.47395900	      0.07980900	     -0.27636100	      1.55326400	      1.34239100	     -0.27095200	      1.64978400	      1.26747400	     -0.22049600	      1.65002600	      1.26502000	     -0.32828700	      1.63548500	      1.27760400	     -0.27976900	      1.68356700	      1.10897400	     -0.27486900	      1.80942200	      0.68505400	     -0.19853800	      1.70550100	      0.61868900	     -0.28955200	      1.72255900	      0.70290200	     -0.15321500	      1.65067100	      0.66303000	     -0.36220700	      1.74803000	      0.62137900	     -0.15026100	      1.64267500	      0.57564100	     -0.35289200	      1.70231100	      0.20915200	     -0.07288600	      1.47829600	      0.18129800	     -0.41664800	      1.70993600	      0.21381600	     -0.11389200	      1.48202900	      0.18812000	     -0.37402300	      1.82352100	      0.06570300	     -0.13303300	      1.58486800	      0.03752600	     -0.29287800	      0.00000000	      0.00000000	      0.00000000	      1.85989490	      0.00000000	     -0.19494888	      5.07050346	    390.91658980	      6.33070393	      1.57011523	      0.00000000	     -0.29693616	      0.00000000	      0.00000000	      0.00000000	      0.00000000	     -0.93410242	      0.00000000	      1.59452975	      0.83995670	     -0.28124428	      1.60036147	      0.82483041	     -0.21782535	      1.58985174	      0.82034481	     -0.33474007	      1.74705052	      0.47314394	     -0.18777920	      1.57057524	      0.46355835	     -0.31382132	      1.71523571	      0.08110123	     -0.17343174	      1.45868158	      0.06948467	     -0.30442506	      1.65261507	      0.90430570	     -0.27860019	      1.65316594	      0.90676481	     -0.17821911	      1.65206420	      0.90184665	     -0.37898126	      1.49494958	      0.92766804	     -0.24850674	      1.49390781	      0.92931217	     -0.30261487	      1.75221264	      0.47993901	     -0.13344525	      1.58698070	      0.45963353	     -0.36564514	      1.74207520	      0.46332660	     -0.24092722	      1.54840064	      0.45362508	     -0.27539632	      1.70265079	      0.08345132	     -0.13712269	      1.46916163	      0.06563045	     -0.34127021	      1.73628354	      0.09568805	     -0.20184028	      1.47395897	      0.07980885	     -0.27636120	      1.55326366	      1.34239089	     -0.27095234	      1.64978361	      1.26747358	     -0.22049591	      1.65002561	      1.26502049	     -0.32828707	      1.63548493	      1.27760434	     -0.27976859	      1.68356729	      1.10897410	     -0.27486876	      1.80942202	      0.68505412	     -0.19853839	      1.70550132	      0.61868906	     -0.28955194	      1.72255862	      0.70290184	     -0.15321478	      1.65067124	      0.66303045	     -0.36220735	      1.74802959	      0.62137890	     -0.15026093	      1.64267516	      0.57564116	     -0.35289189	      1.70231140	      0.20915224	     -0.07288557	      1.47829616	      0.18129823	     -0.41664842	      1.70993626	      0.21381608	     -0.11389229	      1.48202896	      0.18812013	     -0.37402287	      1.82352078	      0.06570277	     -0.13303252	      1.58486807	      0.03752553	     -0.29287791
